<svg data-v-423bf9ae="" xmlns="http://www.w3.org/2000/svg" viewBox="0 0 365 90" class="iconLeft"><!----><defs data-v-423bf9ae=""><linearGradient data-v-423bf9ae="" gradientTransform="rotate(25)" id="c714e2b4-db2e-4fad-ad52-e886760592e1" x1="0%" y1="0%" x2="100%" y2="0%"><stop data-v-423bf9ae="" offset="0%" style="stop-color: rgb(235, 76, 0); stop-opacity: 1;"></stop><stop data-v-423bf9ae="" offset="100%" style="stop-color: rgb(242, 169, 0); stop-opacity: 1;"></stop></linearGradient></defs><!----><g data-v-423bf9ae="" id="582af27f-467e-4ef2-9c5a-f1c2acedc81f" fill="#ffffff" transform="matrix(5,0,0,5,124.09179401397705,3.5000009536743164)"><path d="M6.16 8.79L6.16 8.79L6.16 8.79Q6.21 8.76 6.28 8.68L6.28 8.68L6.28 8.68Q6.34 8.59 6.34 8.55L6.34 8.55L6.34 8.55Q6.34 8.51 6.26 8.45L6.26 8.45L6.26 8.45Q6.17 8.39 6.04 8.34L6.04 8.34L6.04 8.34Q5.91 8.29 5.75 8.24L5.75 8.24L5.75 8.24Q5.58 8.20 5.43 8.17L5.43 8.17L5.43 8.17Q5.09 8.11 4.83 8.11L4.83 8.11L4.83 8.11Q4.57 8.11 4.23 8.24L4.23 8.24L4.23 8.24Q3.90 8.38 3.64 8.62L3.64 8.62L3.64 8.62Q3.38 8.85 3.19 9.17L3.19 9.17L3.19 9.17Q2.99 9.48 2.87 9.83L2.87 9.83L2.87 9.83Q2.62 10.53 2.62 11.15L2.62 11.15L2.62 11.15Q2.62 11.78 2.78 12.15L2.78 12.15L2.78 12.15Q2.93 12.53 3.21 12.78L3.21 12.78L3.21 12.78Q3.77 13.26 4.79 13.26L4.79 13.26L4.79 13.26Q5.61 13.26 6.44 12.85L6.44 12.85L6.44 12.85Q5.39 13.76 4.01 14.08L4.01 14.08L4.01 14.08Q3.55 14.19 3.11 14.19L3.11 14.19L3.11 14.19Q2.67 14.19 2.28 14.06L2.28 14.06L2.28 14.06Q1.89 13.92 1.62 13.67L1.62 13.67L1.62 13.67Q1.05 13.13 1.05 12.18L1.05 12.18L1.05 12.18Q1.05 11.02 1.96 9.81L1.96 9.81L1.96 9.81Q2.80 8.68 4.08 7.95L4.08 7.95L4.08 7.95Q5.39 7.20 6.51 7.20L6.51 7.20L6.51 7.20Q7.27 7.20 7.75 7.50L7.75 7.50L7.75 7.50Q7.88 7.56 7.88 7.64L7.88 7.64L7.88 7.64Q7.88 7.71 7.77 7.82L7.77 7.82L7.77 7.82Q7.66 7.92 7.49 8.05L7.49 8.05L7.49 8.05Q7.32 8.18 7.12 8.31L7.12 8.31L7.12 8.31Q6.91 8.44 6.72 8.54L6.72 8.54L6.72 8.54Q6.30 8.78 6.16 8.79ZM11.39 4.34L11.39 4.34L11.39 4.34Q11.39 4.65 11.21 5.19L11.21 5.19L11.21 5.19Q11.04 5.74 10.94 6.08L10.94 6.08L10.19 8.73L10.19 8.73Q10.17 8.78 10.12 8.98L10.12 8.98L10.12 8.98Q10.06 9.17 9.99 9.43L9.99 9.43L9.99 9.43Q9.92 9.69 9.84 9.98L9.84 9.98L9.84 9.98Q9.75 10.27 9.69 10.51L9.69 10.51L9.69 10.51Q9.52 11.09 9.49 11.14L9.49 11.14L9.49 11.14Q9.46 11.20 9.31 11.28L9.31 11.28L9.31 11.28Q9.15 11.35 8.97 11.44L8.97 11.44L8.97 11.44Q8.44 11.68 8.35 11.77L8.35 11.77L8.35 11.77Q9.85 5.35 9.85 5.15L9.85 5.15L9.85 5.15Q9.85 4.95 9.69 4.95L9.69 4.95L9.69 4.95Q9.62 4.95 9.18 5.28L9.18 5.28L9.20 5.19L9.20 5.19Q9.71 4.78 10.25 4.49L10.25 4.49L10.25 4.49Q11.04 4.07 11.21 4.07L11.21 4.07L11.21 4.07Q11.39 4.07 11.39 4.34ZM9.08 12.22L9.54 13.36L7.99 14.29L7.54 13.15L9.08 12.22ZM17.23 12.70L17.23 12.70L17.23 12.70Q17.23 13.26 17.84 13.26L17.84 13.26L17.84 13.26Q18.09 13.26 18.39 13.16L18.39 13.16L18.39 13.16Q17.69 13.66 17.42 13.82L17.42 13.82L17.42 13.82Q16.78 14.18 16.30 14.18L16.30 14.18L16.30 14.18Q15.68 14.18 15.68 13.59L15.68 13.59L15.68 13.59Q15.68 13.33 15.84 12.70L15.84 12.70L16.43 10.14L16.43 10.14Q16.52 9.77 16.52 9.51L16.52 9.51L16.52 9.51Q16.52 8.39 15.35 8.39L15.35 8.39L15.35 8.39Q14.36 8.39 13.94 9.84L13.94 9.84L13.94 9.84Q13.83 10.22 13.76 10.53L13.76 10.53L13.27 12.64L13.27 12.64Q13.24 12.74 13.24 12.87L13.24 12.87L13.24 12.87Q13.24 13.30 13.62 13.30L13.62 13.30L13.62 13.30Q13.77 13.30 13.94 13.23L13.94 13.23L13.94 13.23Q12.60 14.22 12.09 14.22L12.09 14.22L12.09 14.22Q11.68 14.22 11.68 13.82L11.68 13.82L11.68 13.82Q11.68 13.64 12.09 11.98L12.09 11.98L12.09 11.98Q12.49 10.33 12.63 9.73L12.63 9.73L12.63 9.73Q12.80 8.98 12.80 8.83L12.80 8.83L12.80 8.83Q12.80 8.33 12.15 8.33L12.15 8.33L12.15 8.33Q11.85 8.33 11.54 8.44L11.54 8.44L11.54 8.44Q11.80 8.35 12.13 8.10L12.13 8.10L12.13 8.10Q12.75 7.62 12.97 7.55L12.97 7.55L12.97 7.55Q13.41 7.39 13.74 7.39L13.74 7.39L13.74 7.39Q14.32 7.39 14.32 7.91L14.32 7.91L14.32 7.91Q14.32 8.13 14.21 8.57L14.21 8.57L14.21 8.57Q15.78 7.44 16.87 7.44L16.87 7.44L16.87 7.44Q17.38 7.44 17.74 7.72L17.74 7.72L17.74 7.72Q18.12 8.03 18.12 8.53L18.12 8.53L18.12 8.53Q18.12 8.67 18.08 8.83L18.08 8.83L17.29 12.20L17.29 12.20Q17.23 12.51 17.23 12.70ZM24.58 8.15L24.58 8.15L24.58 8.15Q24.58 9.58 20.67 11.53L20.67 11.53L20.67 11.53Q20.74 13.25 22.47 13.25L22.47 13.25L22.47 13.25Q23.26 13.25 24.10 12.82L24.10 12.82L24.10 12.82Q23.13 13.75 21.66 14.08L21.66 14.08L21.66 14.08Q21.21 14.18 20.77 14.18L20.77 14.18L20.77 14.18Q20.34 14.18 20.03 14.02L20.03 14.02L20.03 14.02Q19.71 13.87 19.52 13.61L19.52 13.61L19.52 13.61Q19.14 13.10 19.14 12.41L19.14 12.41L19.14 12.41Q19.14 11.72 19.35 11.15L19.35 11.15L19.35 11.15Q19.56 10.59 19.91 10.05L19.91 10.05L19.91 10.05Q20.26 9.51 20.73 9.02L20.73 9.02L20.73 9.02Q21.19 8.54 21.72 8.18L21.72 8.18L21.72 8.18Q22.86 7.38 23.83 7.38L23.83 7.38L23.83 7.38Q24.18 7.38 24.38 7.60L24.38 7.60L24.38 7.60Q24.58 7.81 24.58 8.15ZM22.87 9.52L22.87 9.52L22.87 9.52Q23.03 9.25 23.03 9.03L23.03 9.03L23.03 9.03Q23.03 8.80 22.86 8.57L22.86 8.57L22.86 8.57Q22.68 8.34 22.37 8.34L22.37 8.34L22.37 8.34Q22.05 8.34 21.83 8.49L21.83 8.49L21.83 8.49Q21.61 8.65 21.43 8.89L21.43 8.89L21.43 8.89Q21.25 9.14 21.12 9.45L21.12 9.45L21.12 9.45Q20.98 9.76 20.88 10.08L20.88 10.08L20.88 10.08Q20.71 10.68 20.68 11.20L20.68 11.20L20.68 11.20Q21.35 11.03 22.20 10.25L22.20 10.25L22.20 10.25Q22.70 9.79 22.87 9.52ZM27.37 4.42L27.37 4.42L27.37 4.42Q27.37 3.92 26.96 3.92L26.96 3.92L26.96 3.92Q26.69 3.92 26.33 4.02L26.33 4.02L26.33 4.02Q27.29 3.38 29.24 2.30L29.24 2.30L27.79 8.57L27.79 8.57Q28.79 7.84 29.76 7.55L29.76 7.55L29.76 7.55Q30.12 7.44 30.40 7.44L30.40 7.44L30.40 7.44Q30.69 7.44 30.92 7.52L30.92 7.52L30.92 7.52Q31.14 7.59 31.32 7.72L31.32 7.72L31.32 7.72Q31.71 8.04 31.71 8.54L31.71 8.54L31.71 8.54Q31.71 8.67 31.67 8.83L31.67 8.83L30.86 12.30L30.86 12.30Q30.79 12.59 30.79 12.86L30.79 12.86L30.79 12.86Q30.79 13.13 30.92 13.23L30.92 13.23L30.92 13.23Q31.06 13.33 31.26 13.33L31.26 13.33L31.26 13.33Q31.47 13.33 31.65 13.27L31.65 13.27L31.65 13.27Q31.82 13.21 31.96 13.16L31.96 13.16L31.96 13.16Q30.89 14.19 29.87 14.19L29.87 14.19L29.87 14.19Q29.27 14.19 29.27 13.62L29.27 13.62L29.27 13.62Q29.27 13.39 29.33 13.16L29.33 13.16L29.33 13.16Q29.39 12.93 29.44 12.70L29.44 12.70L30.04 10.14L30.04 10.14Q30.17 9.63 30.17 9.30L30.17 9.30L30.17 9.30Q30.17 8.97 30.08 8.80L30.08 8.80L30.08 8.80Q30.00 8.63 29.85 8.54L29.85 8.54L29.85 8.54Q29.60 8.39 29.11 8.39L29.11 8.39L29.11 8.39Q28.62 8.39 28.32 8.60L28.32 8.60L28.32 8.60Q28.03 8.81 27.84 9.13L27.84 9.13L27.84 9.13Q27.54 9.63 27.33 10.53L27.33 10.53L26.85 12.59L26.85 12.59Q26.80 12.83 26.80 12.95L26.80 12.95L26.80 12.95Q26.80 13.28 27.08 13.28L27.08 13.28L27.08 13.28Q27.20 13.28 27.53 13.16L27.53 13.16L27.53 13.16Q27.11 13.83 26.39 14.10L26.39 14.10L26.39 14.10Q26.15 14.19 25.95 14.19L25.95 14.19L25.95 14.19Q25.74 14.19 25.64 14.14L25.64 14.14L25.64 14.14Q25.54 14.09 25.48 14L25.48 14L25.48 14Q25.38 13.83 25.38 13.58L25.38 13.58L25.38 13.58Q25.38 13.22 25.47 12.80L25.47 12.80L27.29 5.00L27.29 5.00Q27.37 4.67 27.37 4.42ZM39.59 7.43L39.59 7.43L39.59 7.43Q39.97 7.43 39.97 7.84L39.97 7.84L39.97 7.84Q39.97 7.96 39.94 8.09L39.94 8.09L38.93 12.43L38.93 12.43Q38.92 12.50 38.90 12.58L38.90 12.58L38.90 12.58Q38.89 12.65 38.89 12.73L38.89 12.73L38.89 12.73Q38.89 13.04 39.08 13.14L39.08 13.14L39.08 13.14Q39.27 13.25 39.48 13.25L39.48 13.25L39.48 13.25Q39.81 13.25 40.15 13.14L40.15 13.14L40.15 13.14Q39.85 13.23 39.63 13.41L39.63 13.41L39.63 13.41Q39.42 13.59 39.18 13.77L39.18 13.77L39.18 13.77Q38.62 14.19 38.00 14.19L38.00 14.19L38.00 14.19Q37.39 14.19 37.39 13.62L37.39 13.62L37.39 13.62Q37.39 13.43 37.45 13.09L37.45 13.09L37.45 13.09Q35.70 14.22 34.54 14.22L34.54 14.22L34.54 14.22Q33.43 14.22 33.43 12.87L33.43 12.87L33.43 12.87Q33.43 12.44 33.56 11.85L33.56 11.85L34.10 9.55L34.10 9.55Q34.20 9.11 34.20 8.89L34.20 8.89L34.20 8.89Q34.20 8.32 33.60 8.32L33.60 8.32L33.60 8.32Q33.35 8.32 33.09 8.42L33.09 8.42L33.09 8.42Q33.30 8.26 33.56 8.08L33.56 8.08L33.56 8.08Q33.81 7.90 34.08 7.74L34.08 7.74L34.08 7.74Q34.73 7.38 35.21 7.38L35.21 7.38L35.21 7.38Q35.77 7.38 35.77 7.94L35.77 7.94L35.77 7.94Q35.77 8.20 35.62 8.81L35.62 8.81L35.62 8.81Q35.02 11.27 34.97 11.61L34.97 11.61L34.97 11.61Q34.92 11.94 34.92 12.21L34.92 12.21L34.92 12.21Q34.92 12.48 35.01 12.69L35.01 12.69L35.01 12.69Q35.11 12.91 35.29 13.04L35.29 13.04L35.29 13.04Q35.60 13.29 36.26 13.29L36.26 13.29L36.26 13.29Q36.70 13.29 37.24 12.92L37.24 12.92L37.24 12.92Q37.39 12.82 37.54 12.74L37.54 12.74L38.38 9.13L38.38 9.13Q38.42 8.96 38.42 8.79L38.42 8.79L38.42 8.79Q38.42 8.35 38.06 8.35L38.06 8.35L38.06 8.35Q37.91 8.35 37.73 8.42L37.73 8.42L37.73 8.42Q39.07 7.43 39.59 7.43ZM44.97 2.41L43.53 8.57L43.53 8.57Q45.15 7.37 46.33 7.37L46.33 7.37L46.33 7.37Q47.65 7.37 48.01 8.54L48.01 8.54L48.01 8.54Q48.12 8.91 48.12 9.41L48.12 9.41L48.12 9.41Q48.12 9.91 47.91 10.50L47.91 10.50L47.91 10.50Q47.69 11.09 47.33 11.65L47.33 11.65L47.33 11.65Q46.96 12.20 46.48 12.68L46.48 12.68L46.48 12.68Q45.99 13.17 45.44 13.52L45.44 13.52L45.44 13.52Q44.24 14.30 43.16 14.30L43.16 14.30L43.16 14.30Q42.36 14.30 41.85 13.83L41.85 13.83L41.85 13.83Q41.34 13.35 41.34 12.56L41.34 12.56L41.34 12.56Q41.34 12.28 41.40 12.01L41.40 12.01L42.98 5.24L42.98 5.24Q43.09 4.73 43.09 4.53L43.09 4.53L43.09 4.53Q43.09 4.03 42.64 4.03L42.64 4.03L42.64 4.03Q42.46 4.03 42.05 4.13L42.05 4.13L42.05 4.13Q42.38 3.92 42.74 3.68L42.74 3.68L42.74 3.68Q43.10 3.45 43.48 3.22L43.48 3.22L43.48 3.22Q44.34 2.71 44.97 2.41L44.97 2.41ZM46.38 11.68L46.38 11.68L46.38 11.68Q46.49 11.33 46.54 10.95L46.54 10.95L46.54 10.95Q46.59 10.58 46.59 10.20L46.59 10.20L46.59 10.20Q46.59 9.82 46.49 9.46L46.49 9.46L46.49 9.46Q46.40 9.11 46.19 8.85L46.19 8.85L46.19 8.85Q45.75 8.29 44.89 8.29L44.89 8.29L44.89 8.29Q44.30 8.29 43.79 8.86L43.79 8.86L43.79 8.86Q43.35 9.37 43.20 10.00L43.20 10.00L42.81 11.69L42.81 11.69Q42.76 11.87 42.76 12.15L42.76 12.15L42.76 12.15Q42.76 12.43 42.89 12.68L42.89 12.68L42.89 12.68Q43.02 12.93 43.23 13.10L43.23 13.10L43.23 13.10Q43.65 13.44 44.20 13.44L44.20 13.44L44.20 13.44Q44.74 13.44 45.07 13.30L45.07 13.30L45.07 13.30Q45.40 13.16 45.65 12.92L45.65 12.92L45.65 12.92Q45.90 12.67 46.08 12.36L46.08 12.36L46.08 12.36Q46.26 12.04 46.38 11.68Z"></path></g><!----><g data-v-423bf9ae="" id="172c1b6e-e0c5-4950-ad3f-cf9321b0fdb9" transform="matrix(1.0512422306281344,0,0,1.0512422306281344,3.4518251601178846,-8.418495288157239)" stroke="none" fill="#ffffff"><path d="M85.649 88.282v-8.194h15.09v-5.501H86.831V27.628H101v-5.5H85.649v-8.461h14.493v-5.5H-2.395v5.5h15.74v8.461h-14.72v5.5H12v46.959H-.297v5.501h13.643v8.194H-.732v5.498h102.349v-5.498H85.649zm-7.218 0h-14.55v-8.194h14.55v8.194zM21.758 27.628h55.316v46.959H21.758V27.628zm20.354-5.501v-8.461h14.551v8.461H42.112zm14.551 57.961v8.194H42.112v-8.194h14.551zm21.768-57.961h-14.55v-8.461h14.55v8.461zm-57.867-8.46h14.33v8.461h-14.33v-8.461zm0 66.421h14.33v8.194h-14.33v-8.194z"></path><path d="M48.896 33.924c-9.695 0-17.555 7.86-17.555 17.557 0 9.694 7.86 17.556 17.555 17.556 9.698 0 17.559-7.861 17.559-17.556-.001-9.696-7.861-17.557-17.559-17.557zm-3.064 29.308V39.317l11.956 11.957-11.956 11.958z"></path></g><!----></svg>