<svg data-v-423bf9ae="" xmlns="http://www.w3.org/2000/svg" viewBox="0 0 269.75741456067874 60" class="font"><!----><!----><!----><g data-v-423bf9ae="" id="21875873-d1fe-4df9-b746-4a98f38dc641" fill="black" transform="matrix(5.39083552408516,0,0,5.39083552408516,-1.8867942215310336,-9.056604755595906)"><path d="M2.32 9.38C2.32 8.83 2.50 8.41 2.86 8.11C3.22 7.82 3.71 7.67 4.31 7.67C4.75 7.67 5.17 7.77 5.58 7.96C5.99 8.15 6.26 8.37 6.41 8.62L6.41 6.50C5.80 6.13 5.05 5.95 4.17 5.95C3.01 5.95 2.09 6.26 1.39 6.88C0.70 7.50 0.35 8.33 0.35 9.38C0.35 10.43 0.70 11.26 1.39 11.88C2.09 12.50 3.01 12.81 4.17 12.81C5.16 12.81 5.91 12.63 6.41 12.26L6.41 10.12C6.25 10.39 5.99 10.62 5.61 10.81C5.23 10.99 4.80 11.09 4.31 11.09C3.71 11.09 3.22 10.94 2.86 10.65C2.50 10.35 2.32 9.93 2.32 9.38ZM7.81 3.61C7.81 3.91 7.93 4.17 8.16 4.38C8.38 4.60 8.66 4.70 8.97 4.70C9.29 4.70 9.56 4.60 9.79 4.38C10.02 4.17 10.14 3.91 10.14 3.61C10.14 3.31 10.02 3.06 9.79 2.84C9.56 2.63 9.29 2.52 8.97 2.52C8.66 2.52 8.38 2.63 8.16 2.84C7.93 3.06 7.81 3.31 7.81 3.61ZM8.01 6.16L8.01 12.60L9.93 12.60L9.93 6.16ZM13.50 8.82C13.50 8.38 13.63 8.05 13.90 7.82C14.17 7.59 14.51 7.48 14.92 7.48C15.28 7.48 15.54 7.57 15.70 7.76C15.86 7.95 15.95 8.26 15.95 8.68L15.95 12.60L17.84 12.60L17.84 8.26C17.84 7.57 17.64 7.02 17.23 6.61C16.83 6.21 16.30 6.01 15.62 6.01C14.66 6.01 13.95 6.41 13.50 7.22L13.50 6.16L11.61 6.16L11.61 12.60L13.50 12.60ZM24.04 8.62L20.92 8.62C20.99 8.22 21.19 7.91 21.50 7.69C21.82 7.46 22.18 7.35 22.57 7.35C23.43 7.35 23.92 7.77 24.04 8.62ZM20.90 9.87L26.00 9.87C26.02 9.69 26.03 9.49 26.03 9.25C26.03 8.25 25.71 7.44 25.09 6.85C24.46 6.25 23.62 5.95 22.57 5.95C21.49 5.95 20.62 6.27 19.96 6.92C19.29 7.57 18.96 8.39 18.96 9.38C18.96 10.38 19.28 11.19 19.92 11.81C20.55 12.43 21.44 12.74 22.57 12.74C24.20 12.74 25.33 12.10 25.94 10.82L24.15 10.42C23.86 10.99 23.33 11.27 22.57 11.27C21.62 11.27 21.06 10.80 20.90 9.87ZM29.04 8.82C29.04 8.38 29.17 8.05 29.44 7.82C29.71 7.59 30.05 7.48 30.46 7.48C30.82 7.48 31.08 7.57 31.24 7.76C31.40 7.95 31.49 8.26 31.49 8.68L31.49 12.60L33.38 12.60L33.38 8.26C33.38 7.57 33.18 7.02 32.77 6.61C32.37 6.21 31.84 6.01 31.16 6.01C30.17 6.01 29.46 6.39 29.04 7.15L29.04 1.68L27.15 1.68L27.15 12.60L29.04 12.60ZM39.40 9.94C39.40 10.49 39.27 10.85 39.02 11.03C38.78 11.20 38.43 11.28 37.97 11.28C37.61 11.28 37.35 11.18 37.19 10.98C37.03 10.77 36.95 10.43 36.95 9.94L36.95 6.16L35.06 6.16L35.06 10.50C35.06 12.00 35.75 12.75 37.13 12.75C38.21 12.75 38.97 12.35 39.40 11.55L39.40 12.60L41.29 12.60L41.29 6.16L39.40 6.16ZM50.39 9.38C50.39 8.26 50.08 7.42 49.46 6.86C48.85 6.30 48.07 6.02 47.12 6.02C46.09 6.02 45.31 6.46 44.79 7.35L44.79 1.68L42.90 1.68L42.90 12.60L44.79 12.60L44.79 11.41C45.31 12.30 46.09 12.74 47.12 12.74C48.07 12.74 48.85 12.46 49.46 11.90C50.08 11.34 50.39 10.50 50.39 9.38ZM48.48 9.38C48.48 9.93 48.31 10.35 47.97 10.63C47.63 10.92 47.18 11.06 46.63 11.06C46.10 11.06 45.66 10.92 45.31 10.65C44.96 10.37 44.79 9.95 44.79 9.38C44.79 8.81 44.96 8.39 45.31 8.11C45.66 7.84 46.10 7.70 46.63 7.70C47.17 7.70 47.61 7.86 47.96 8.17C48.31 8.48 48.48 8.89 48.48 9.38Z"></path></g><!----><!----></svg>